<svg xmlns="http://www.w3.org/2000/svg" width="218" height="40" viewBox="0 0 218 40">
	<g fill="none" fill-rule="evenodd">
		<g fill="#FFF">
			<g>
				<path d="M143.925 23.76c-.154 0-.231-.12-.231-.363 0-.242.077-.363.231-.363.067 0 .501.01 1.306.033.804.022 1.647.033 2.528.033.882 0 1.724-.011 2.528-.033.805-.022 1.24-.033 1.306-.033.154 0 .232.121.232.363 0 .243-.078.364-.232.364-.066 0-.501-.011-1.306-.034-.804-.02-1.646-.033-2.528-.033-.881 0-1.724.012-2.528.033-.805.023-1.24.034-1.306.034" transform="translate(-162 -10731) translate(162 10731)"/>
				<path stroke="#FFF" stroke-width=".2" d="M.761 9.053c.11 0 .534.028 1.273.083.738.055 1.482.083 2.23.083.75 0 1.493-.028 2.232-.083.738-.055 1.162-.083 1.272-.083.198 0 .297.1.297.298 0 .176-.099.264-.297.264-.066 0-.254-.016-.562-.05-.309-.032-.584-.049-.826-.049-.507 0-.76.22-.76.66 0 .265.088.684.264 1.257l3.404 10.41L13.09 9.352c.065-.176.219-.264.462-.264.264 0 .43.088.496.264l4.395 12.493 3.405-10.345c.197-.572.297-1.025.297-1.355 0-.418-.264-.628-.793-.628-.243 0-.546.017-.91.05-.363.033-.578.049-.644.049-.198 0-.297-.088-.297-.264 0-.199.099-.298.297-.298.154 0 .55.028 1.19.083.639.055 1.19.083 1.653.083.462 0 1.013-.028 1.652-.083.639-.055 1.035-.083 1.19-.083.198 0 .297.1.297.298 0 .176-.099.264-.297.264-.066 0-.281-.016-.644-.05-.364-.032-.667-.049-.91-.049-.462 0-.798.132-1.008.397-.21.264-.446.793-.71 1.586l-3.9 11.997c-.066.176-.22.264-.463.264-.264 0-.43-.088-.496-.264l-4.428-12.46-3.801 12.46c-.066.176-.231.264-.495.264-.265 0-.43-.088-.496-.264l-4-11.964c-.242-.771-.49-1.3-.743-1.586-.254-.286-.612-.43-1.075-.43-.242 0-.544.017-.908.05s-.578.049-.645.049c-.198 0-.297-.088-.297-.264 0-.199.1-.298.297-.298M28.82 15.862h8.264c.264 0 .417-.154.462-.463.066-.529.099-1.013.099-1.454 0-3.041-1.42-4.561-4.263-4.561-1.367 0-2.407.396-3.123 1.19-.717.793-1.163 2.005-1.339 3.635-.066.53-.1 1.08-.1 1.653m-1.718.496c0-2.336.573-4.142 1.719-5.421 1.123-1.256 2.644-1.884 4.561-1.884 1.917 0 3.388.452 4.412 1.356 1.025.903 1.537 2.434 1.537 4.593 0 .463-.012.816-.033 1.058v.132H28.821v.166c0 2.27.43 4.015 1.289 5.238.859 1.223 2.082 1.834 3.669 1.834 2.136 0 3.646-1.046 4.527-3.14.044-.132.144-.198.298-.198.132 0 .225.033.28.1.055.066.083.132.083.197 0 .045-.011.1-.032.166-1.125 2.137-2.876 3.205-5.256 3.205-1.83 0-3.382-.638-4.66-1.916s-1.917-3.107-1.917-5.486M44.453 21.447V3.137c0-.704-.088-1.19-.264-1.454-.177-.264-.486-.396-.926-.396-.22 0-.54.016-.958.05-.419.032-.673.049-.76.049-.199 0-.297-.088-.297-.265 0-.176.098-.264.297-.264h1.487c.507 0 1.069-.071 1.685-.215.617-.143.97-.215 1.058-.215.264 0 .397.133.397.397v20.623c0 .706.07 1.19.215 1.454.143.265.434.397.875.397.243 0 .546-.016.909-.05.363-.032.579-.049.645-.049.198 0 .297.088.297.264 0 .199-.099.297-.297.297-.11 0-.535-.027-1.273-.082-.738-.056-1.482-.082-2.23-.082-.75 0-1.494.026-2.232.082-.738.055-1.162.082-1.272.082-.198 0-.297-.098-.297-.297 0-.176.099-.264.297-.264.066 0 .28.017.645.05.363.033.666.049.909.049.44 0 .731-.132.876-.397.142-.264.214-.748.214-1.454M53.806 11.003c1.322-1.3 3.073-1.95 5.255-1.95 1.564 0 2.814.397 3.75 1.19.937.793 1.406 1.62 1.406 2.479 0 .463-.133.838-.397 1.123-.265.287-.607.43-1.025.43-.375 0-.7-.11-.975-.33-.276-.22-.413-.518-.413-.893 0-.529.275-.947.826-1.256.353-.198.53-.407.53-.628 0-.396-.337-.803-1.008-1.222-.673-.419-1.57-.628-2.694-.628-1.719 0-3.036.64-3.95 1.916-.914 1.279-1.372 2.964-1.372 5.058 0 4.803 1.73 7.204 5.19 7.204 2.247 0 3.811-1.09 4.693-3.272.066-.132.165-.198.297-.198.132 0 .226.039.281.116.055.077.083.148.083.214 0 .045-.012.1-.033.166-.397.881-1.047 1.641-1.95 2.28-.904.64-2.027.959-3.372.959-2.137 0-3.855-.667-5.155-2-1.3-1.333-1.95-3.156-1.95-5.47 0-2.225.66-3.988 1.983-5.288M75.222 23.496c1.74 0 3.002-.583 3.784-1.752.783-1.167 1.174-2.951 1.174-5.353 0-4.716-1.653-7.074-4.958-7.074-3.37 0-5.057 2.358-5.057 7.074 0 2.424.402 4.213 1.207 5.37.804 1.157 2.087 1.735 3.85 1.735m5.057-1.652c-1.235 1.278-2.92 1.916-5.057 1.916-2.138 0-3.833-.632-5.09-1.9-1.256-1.267-1.883-3.09-1.883-5.47s.627-4.197 1.884-5.453c1.256-1.255 2.951-1.884 5.09-1.884 2.136 0 3.817.629 5.04 1.884 1.222 1.256 1.834 3.074 1.834 5.454 0 2.379-.606 4.197-1.818 5.453M111.544 23.199c.198 0 .297.088.297.264 0 .199-.099.297-.297.297-.11 0-.535-.027-1.273-.082-.738-.055-1.482-.083-2.23-.083-.75 0-1.494.028-2.232.083-.738.055-1.162.082-1.271.082-.199 0-.298-.098-.298-.297 0-.176.099-.264.298-.264.065 0 .28.016.644.05.363.033.666.048.909.048.44 0 .731-.131.876-.395.142-.265.214-.75.214-1.455v-6.379c0-2.093-.264-3.546-.793-4.362-.529-.815-1.4-1.223-2.611-1.223-1.3 0-2.358.523-3.173 1.57-.815 1.047-1.223 2.385-1.223 4.015v6.38c0 .705.072 1.189.215 1.454.144.264.435.395.876.395.242 0 .546-.015.909-.049.363-.033.578-.05.644-.05.199 0 .298.09.298.265 0 .199-.1.297-.298.297-.11 0-.534-.027-1.272-.082-.739-.055-1.482-.083-2.23-.083-.75 0-1.494.028-2.232.083-.738.055-1.162.082-1.272.082-.199 0-.298-.098-.298-.297 0-.176.1-.264.298-.264.065 0 .28.016.644.05.364.033.666.048.91.048.44 0 .731-.131.875-.395.143-.265.215-.75.215-1.455v-6.379c0-2.093-.27-3.546-.81-4.362-.54-.815-1.416-1.223-2.628-1.223-1.234 0-2.274.54-3.123 1.62-.849 1.08-1.272 2.49-1.272 4.23v6.114c0 .706.071 1.19.214 1.455.144.264.436.395.876.395.242 0 .546-.015.91-.049.363-.033.578-.05.644-.05.198 0 .297.09.297.265 0 .199-.099.297-.297.297-.11 0-.534-.027-1.273-.082-.738-.055-1.482-.083-2.23-.083-.75 0-1.493.028-2.231.083-.739.055-1.163.082-1.273.082-.198 0-.297-.098-.297-.297 0-.176.1-.264.297-.264.066 0 .28.016.644.05.365.033.667.048.91.048.44 0 .732-.131.875-.395.143-.265.215-.75.215-1.455v-9.716c0-.705-.088-1.19-.264-1.455-.177-.264-.485-.396-.926-.396-.22 0-.54.016-.958.05-.42.032-.672.049-.76.049-.199 0-.298-.088-.298-.264 0-.177.1-.265.298-.265h1.487c.507 0 1.068-.071 1.686-.215.616-.143.97-.215 1.057-.215.265 0 .397.133.397.397v3.503c.352-1.212.963-2.16 1.834-2.842.87-.683 1.878-1.025 3.024-1.025 1.322 0 2.363.32 3.123.959.76.64 1.24 1.696 1.438 3.172.309-1.299.91-2.313 1.802-3.04.892-.727 1.944-1.09 3.156-1.09 1.564 0 2.737.457 3.52 1.371.782.915 1.173 2.462 1.173 4.643v6.38c0 .705.071 1.189.214 1.454.144.264.435.395.877.395.242 0 .545-.015.908-.049.364-.033.579-.05.645-.05M116.203 15.862h8.263c.264 0 .418-.154.463-.463.066-.529.098-1.013.098-1.454 0-3.041-1.42-4.561-4.262-4.561-1.367 0-2.408.396-3.124 1.19-.716.793-1.163 2.005-1.338 3.635-.067.53-.1 1.08-.1 1.653m-1.718.496c0-2.336.572-4.142 1.718-5.421 1.124-1.256 2.644-1.884 4.562-1.884 1.916 0 3.387.452 4.411 1.356 1.025.903 1.538 2.434 1.538 4.593 0 .463-.012.816-.034 1.058v.132h-10.477v.166c0 2.27.43 4.015 1.29 5.238.859 1.223 2.081 1.834 3.668 1.834 2.137 0 3.646-1.046 4.528-3.14.044-.132.143-.198.297-.198.132 0 .226.033.28.1.056.066.083.132.083.197 0 .045-.01.1-.032.166-1.124 2.137-2.876 3.205-5.255 3.205-1.83 0-3.383-.638-4.66-1.916-1.279-1.278-1.917-3.107-1.917-5.486M139.253 19.464c.242 0 .364.099.364.297 0 2.667-.925 4-2.776 4-2.469 0-3.702-1.4-3.702-4.198v-9.98c-.177 0-.502.016-.975.049-.474.033-.8.05-.975.05-.441 0-.66-.1-.66-.298 0-.176.219-.265.66-.265h.231c1.101 0 1.862-.275 2.28-.826.42-.55.628-1.355.628-2.412 0-.44-.01-.771-.033-.992-.022-.088 0-.154.066-.199.067-.043.144-.065.232-.065.198 0 .297.077.297.23V9.22l1.686-.067c.595-.02.98-.033 1.157-.033.374 0 .562.089.562.265 0 .198-.188.297-.562.297-.22 0-.661-.022-1.322-.066-.661-.044-1.168-.066-1.52-.066v9.98c0 1.434.154 2.441.462 3.025.308.585.804.876 1.488.876 1.41 0 2.115-.97 2.115-2.909 0-.33-.012-.583-.033-.76-.022-.087.005-.159.083-.214.076-.055.159-.083.247-.083M147.76 20.392c1.33 0 2.294-.447 2.893-1.34.598-.893.897-2.258.897-4.094 0-3.606-1.263-5.41-3.79-5.41-2.579 0-3.868 1.804-3.868 5.41 0 1.854.307 3.222.922 4.107.616.884 1.597 1.327 2.945 1.327m3.867-1.264c-.943.977-2.232 1.466-3.867 1.466-1.634 0-2.931-.485-3.892-1.454-.96-.968-1.44-2.363-1.44-4.182 0-1.82.48-3.21 1.44-4.17.96-.961 2.258-1.441 3.892-1.441 1.635 0 2.92.48 3.855 1.44s1.402 2.35 1.402 4.17c0 1.82-.463 3.21-1.39 4.171M160.126 11.003c1.322-1.3 3.074-1.95 5.255-1.95 1.564 0 2.815.397 3.751 1.19.937.793 1.405 1.62 1.405 2.479 0 .463-.132.838-.397 1.123-.264.287-.606.43-1.024.43-.376 0-.7-.11-.976-.33-.275-.22-.413-.518-.413-.893 0-.529.276-.947.827-1.256.352-.198.529-.407.529-.628 0-.396-.336-.803-1.008-1.222-.673-.419-1.57-.628-2.694-.628-1.718 0-3.036.64-3.95 1.916-.914 1.279-1.371 2.964-1.371 5.058 0 4.803 1.73 7.204 5.189 7.204 2.247 0 3.811-1.09 4.693-3.272.066-.132.165-.198.297-.198.133 0 .226.039.281.116.055.077.083.148.083.214 0 .045-.011.1-.033.166-.396.881-1.047 1.641-1.95 2.28-.904.64-2.027.959-3.371.959-2.137 0-3.856-.667-5.156-2-1.3-1.333-1.95-3.156-1.95-5.47 0-2.225.66-3.988 1.983-5.288M176.32 21.447V3.137c0-.704-.088-1.19-.264-1.454-.176-.264-.485-.396-.925-.396-.221 0-.54.016-.959.05-.419.032-.672.049-.76.049-.199 0-.297-.088-.297-.265 0-.176.098-.264.297-.264h1.488c.506 0 1.068-.071 1.684-.215.618-.143.97-.215 1.058-.215.264 0 .397.133.397.397v20.623c0 .706.07 1.19.215 1.454.143.265.435.397.875.397.243 0 .546-.016.91-.05.363-.032.578-.049.644-.049.199 0 .297.088.297.264 0 .199-.098.297-.297.297-.11 0-.534-.027-1.272-.082-.739-.056-1.482-.082-2.231-.082-.75 0-1.494.026-2.231.082-.738.055-1.163.082-1.273.082-.198 0-.297-.098-.297-.297 0-.176.1-.264.297-.264.066 0 .28.017.645.05.363.033.666.049.909.049.44 0 .732-.132.876-.397.143-.264.214-.748.214-1.454M200.645 22.802c.198 0 .297.089.297.264 0 .177-.099.265-.297.265h-1.487c-.507 0-1.07.072-1.686.215-.617.143-.97.214-1.057.214-.265 0-.397-.131-.397-.396v-3.866c-.375 1.277-1.047 2.308-2.016 3.09-.97.782-2.082 1.172-3.338 1.172-3.393 0-5.09-2.114-5.09-6.345V11.73c0-.705-.088-1.19-.264-1.455-.177-.264-.485-.396-.926-.396-.22 0-.54.016-.958.05-.419.032-.673.049-.76.049-.199 0-.298-.088-.298-.264 0-.177.1-.265.298-.265h1.487c.507 0 1.069-.071 1.685-.215.617-.143.97-.215 1.058-.215.264 0 .397.133.397.397v7.998c0 3.988 1.267 5.982 3.8 5.982 1.322 0 2.473-.59 3.454-1.768.98-1.178 1.47-2.66 1.47-4.445V11.73c0-.705-.087-1.19-.264-1.455-.176-.264-.484-.396-.925-.396-.22 0-.54.016-.958.05-.42.032-.672.049-.76.049-.199 0-.298-.088-.298-.264 0-.177.1-.265.298-.265h1.487c.506 0 1.068-.071 1.685-.215.617-.143.97-.215 1.058-.215.264 0 .397.133.397.397V21.05c0 .705.087 1.19.264 1.454.176.264.484.396.925.396.22 0 .54-.016.96-.049.417-.033.67-.05.76-.05M211.287 23.43c1.454 0 2.561-.605 3.321-1.818.76-1.21 1.14-2.93 1.14-5.156 0-4.736-1.531-7.105-4.594-7.105-1.454 0-2.6.55-3.437 1.652-.837 1.102-1.256 2.468-1.256 4.098v3.206c0 1.587.447 2.838 1.34 3.751.891.915 2.053 1.372 3.486 1.372m.165-14.376c1.828 0 3.288.644 4.379 1.933 1.09 1.289 1.636 3.112 1.636 5.47 0 2.379-.545 4.192-1.636 5.436-1.09 1.245-2.682 1.868-4.776 1.868-1.63 0-3.161-.474-4.594-1.421-.573.374-.97.77-1.19 1.19-.066.132-.176.197-.33.197-.132 0-.198-.055-.198-.165V3.137c0-.705-.089-1.19-.265-1.454-.176-.265-.484-.396-.925-.396-.22 0-.54.016-.958.05-.42.033-.673.048-.76.048-.199 0-.298-.087-.298-.264 0-.176.1-.264.297-.264h1.488c.506 0 1.068-.072 1.685-.215.617-.143.97-.215 1.058-.215.264 0 .396.132.396.397v11.964c.331-1.124.92-2.027 1.77-2.71.847-.683 1.92-1.024 3.221-1.024M3.316 33.707c-.381.401-.566.91-.566 1.527 0 .616.185 1.135.566 1.536.382.402.862.597 1.44.597.577 0 1.047-.205 1.429-.607.382-.41.567-.92.567-1.526 0-.607-.196-1.116-.576-1.517-.383-.412-.853-.617-1.42-.617-.578 0-1.058.205-1.44.607h0zM2.31 39.59v-6.823h.489v1.027c.117-.323.352-.596.705-.822.362-.225.773-.333 1.253-.333.695 0 1.282.246 1.761.745.48.5.725 1.116.725 1.85 0 .735-.244 1.35-.725 1.85-.479.5-1.066.743-1.761.743-.48 0-.89-.107-1.253-.332-.353-.226-.588-.5-.705-.822v2.917h-.49zM10.438 35.234c0 .606.196 1.116.597 1.526.402.402.91.608 1.507.608.597 0 1.097-.206 1.499-.608.4-.41.606-.92.606-1.526 0-.608-.206-1.116-.606-1.517-.402-.412-.902-.617-1.499-.617-.597 0-1.105.205-1.507.617-.401.401-.597.91-.597 1.517m-.489 0c0-.734.244-1.351.744-1.85.499-.5 1.115-.744 1.85-.744.734 0 1.34.244 1.84.744.499.499.753 1.116.753 1.85s-.254 1.351-.754 1.85c-.5.5-1.105.744-1.84.744-.734 0-1.35-.244-1.85-.744-.5-.499-.743-1.116-.743-1.85M19.125 37.7L17.353 32.767 17.852 32.767 19.282 36.791 20.652 32.767 21.005 32.767 22.365 36.791 23.794 32.767 24.303 32.767 22.531 37.7 22.198 37.7 20.828 33.648 19.458 37.7zM30.767 34.911c-.009-.5-.185-.93-.528-1.282-.342-.353-.754-.529-1.253-.529-.519 0-.96.176-1.331.53-.362.341-.557.772-.578 1.281h3.69zm-4.19.333c0-.764.227-1.39.687-1.87.46-.49 1.037-.735 1.722-.735.656 0 1.204.236 1.635.716.44.479.656 1.057.656 1.752 0 .098 0 .175-.01.244h-4.209c.01.597.195 1.077.557 1.448.363.373.833.558 1.39.558.617 0 1.156-.233 1.616-.714l.323.314c-.5.577-1.145.86-1.938.86-.715 0-1.293-.233-1.753-.704-.45-.48-.675-1.086-.675-1.84v-.029zM36.588 32.699v.508c-.078-.009-.186-.02-.313-.02-.52 0-.91.177-1.185.52-.274.343-.41.773-.41 1.292V37.7h-.49v-4.933h.49v.99c.244-.716.802-1.068 1.672-1.068.109 0 .187 0 .236.01M42.976 34.911c-.01-.5-.186-.93-.528-1.282-.342-.353-.754-.529-1.254-.529-.518 0-.959.176-1.33.53-.363.341-.558.772-.578 1.281h3.69zm-4.19.333c0-.764.226-1.39.686-1.87.46-.49 1.038-.735 1.722-.735.656 0 1.205.236 1.636.716.44.479.656 1.057.656 1.752 0 .098 0 .175-.01.244h-4.21c.01.597.196 1.077.558 1.448.363.373.833.558 1.39.558.617 0 1.156-.233 1.616-.714l.322.314c-.499.577-1.144.86-1.938.86-.715 0-1.292-.233-1.752-.704-.45-.48-.676-1.086-.676-1.84v-.029zM47.24 33.717c-.382.401-.567.91-.567 1.517 0 .606.185 1.116.567 1.526.382.402.852.608 1.43.608.576 0 1.046-.196 1.429-.597.38-.403.577-.92.577-1.537 0-.617-.196-1.126-.577-1.528-.383-.401-.853-.606-1.43-.606-.568 0-1.047.205-1.43.617m2.683-.735c.362.225.597.49.705.813v-2.917h.49v5.902c0 .42.107.597.41.597.108 0 .206-.01.275-.029v.382c-.098.05-.235.068-.412.068-.499 0-.743-.312-.743-.949v-.166c-.323.694-1.038 1.145-1.978 1.145-.695 0-1.292-.244-1.771-.744-.48-.499-.716-1.116-.716-1.85s.236-1.351.716-1.85c.479-.5 1.076-.744 1.771-.744.48 0 .89.117 1.253.342M64.38 36.76c.382-.41.577-.92.577-1.526 0-.597-.195-1.107-.577-1.517-.382-.412-.852-.617-1.42-.617-.577 0-1.056.205-1.44.606-.38.402-.576.911-.576 1.528s.196 1.134.577 1.537c.383.4.862.597 1.44.597.567 0 1.037-.206 1.42-.608h0zm-3.867-5.882h.49v2.916c.108-.323.343-.587.694-.812.363-.225.784-.342 1.264-.342.695 0 1.282.244 1.761.744.48.499.724 1.116.724 1.85s-.244 1.351-.724 1.85c-.479.5-1.066.744-1.761.744-.48 0-.9-.108-1.264-.333-.351-.225-.586-.5-.694-.822V37.7h-.49v-6.822zM69.622 37.73l-1.957-4.962h.509l1.693 4.325 1.722-4.325h.52l-2.33 5.804c-.157.392-.323.675-.5.841-.214.206-.489.314-.822.314-.175 0-.323-.03-.45-.079v-.45c.127.049.275.068.45.068.206 0 .383-.067.529-.215.127-.127.235-.323.343-.587l.293-.734zM80.567 36.458c.196.538.676.89 1.42.89.792 0 1.165-.401 1.165-.9 0-.284-.098-.5-.285-.646-.185-.147-.508-.324-.979-.52-.89-.38-1.31-.695-1.31-1.428 0-.705.576-1.215 1.359-1.215.618 0 1.057.256 1.322.774l-.4.206c-.197-.343-.5-.519-.912-.519-.508 0-.88.294-.88.754 0 .5.332.724 1.126 1.047 1.017.42 1.448.793 1.448 1.546 0 .754-.597 1.362-1.655 1.362-.91 0-1.596-.442-1.83-1.195l.411-.156zM86.447 37.7L86.447 30.878 86.936 30.878 86.936 35.478 89.334 32.767 89.922 32.767 88.012 34.93 90.147 37.7 89.55 37.7 87.7 35.292 86.936 36.135 86.936 37.7zM92.806 32.768h.489v4.042c0 .381.098.538.402.538.088 0 .186-.01.273-.02v.412c-.107.04-.235.059-.401.059-.508 0-.763-.305-.763-.902v-4.13zm-.01-1.078c-.127-.127-.127-.362 0-.49.313-.351.841.196.499.49-.127.127-.353.127-.5 0h0zM96.689 37.7v-4.933h.489v.95c.283-.685.842-1.028 1.693-1.028 1.127 0 1.87.763 1.87 1.967v2.075c0 .401.098.558.381.558.03 0 .098-.01.206-.02v.412c-.088.03-.175.048-.284.048-.528 0-.793-.322-.793-.959v-2.016c0-.979-.587-1.605-1.487-1.605-.97 0-1.586.763-1.586 1.898V37.7h-.49zM108.244 33.413l-.294.333c-.412-.43-.94-.645-1.575-.645-.597 0-1.107.204-1.508.616-.401.402-.597.91-.597 1.517 0 .606.196 1.116.597 1.526.401.402.91.608 1.508.608.635 0 1.163-.216 1.575-.646l.294.333c-.48.518-1.106.773-1.87.773-.734 0-1.35-.245-1.85-.744-.499-.5-.744-1.116-.744-1.85 0-.735.245-1.35.745-1.85.499-.5 1.115-.745 1.85-.745.763 0 1.39.255 1.869.774M111.92 33.717c-.382.401-.568.91-.568 1.517 0 .606.186 1.116.567 1.526.382.402.853.608 1.43.608s1.047-.196 1.43-.597c.38-.403.576-.92.576-1.537 0-.617-.196-1.126-.576-1.528-.383-.401-.853-.606-1.43-.606-.568 0-1.048.205-1.43.617m2.683-.735c.362.225.597.49.705.813v-1.027h.489v4.012c0 .42.108.597.411.597.108 0 .205-.01.274-.029v.382c-.097.05-.235.068-.411.068-.499 0-.744-.312-.744-.949v-.166c-.322.694-1.037 1.145-1.977 1.145-.695 0-1.292-.244-1.772-.744-.48-.499-.715-1.116-.715-1.85s.235-1.351.715-1.85c.48-.5 1.077-.744 1.772-.744.48 0 .89.117 1.253.342M121.645 32.699v.508c-.078-.009-.186-.02-.313-.02-.52 0-.91.177-1.184.52-.275.343-.412.773-.412 1.292V37.7h-.49v-4.933h.49v.99c.245-.716.803-1.068 1.674-1.068.108 0 .186 0 .235.01M128.033 34.911c-.009-.5-.185-.93-.528-1.282-.342-.353-.754-.529-1.253-.529-.519 0-.96.176-1.331.53-.362.341-.558.772-.578 1.281h3.69zm-4.19.333c0-.764.227-1.39.687-1.87.46-.49 1.037-.735 1.722-.735.656 0 1.204.236 1.635.716.44.479.656 1.057.656 1.752 0 .098 0 .175-.01.244h-4.209c.01.597.195 1.077.557 1.448.363.373.833.558 1.39.558.617 0 1.156-.233 1.616-.714l.323.314c-.5.577-1.145.86-1.938.86-.715 0-1.293-.233-1.753-.704-.45-.48-.676-1.086-.676-1.84v-.029zM138.45 33.707c-.381.401-.567.91-.567 1.527 0 .616.186 1.135.567 1.536.382.402.862.597 1.44.597.577 0 1.047-.205 1.428-.607.382-.41.568-.92.568-1.526 0-.607-.196-1.116-.577-1.517-.382-.412-.853-.617-1.42-.617-.577 0-1.057.205-1.439.607h0zm-1.007 5.883v-6.823h.489v1.027c.117-.323.352-.596.705-.822.362-.225.772-.333 1.252-.333.696 0 1.283.246 1.762.745.48.5.725 1.116.725 1.85 0 .735-.244 1.35-.725 1.85-.479.5-1.066.743-1.762.743-.48 0-.89-.107-1.252-.332-.353-.226-.588-.5-.705-.822v2.917h-.49zM147.705 32.699v.508c-.078-.009-.185-.02-.312-.02-.52 0-.911.177-1.185.52s-.412.773-.412 1.292V37.7h-.489v-4.933h.49v.99c.245-.716.803-1.068 1.673-1.068.108 0 .187 0 .235.01M150.384 35.234c0 .606.196 1.116.598 1.526.401.402.91.608 1.507.608.597 0 1.096-.206 1.498-.608.4-.41.606-.92.606-1.526 0-.608-.206-1.116-.606-1.517-.402-.412-.901-.617-1.498-.617-.598 0-1.106.205-1.507.617-.402.401-.598.91-.598 1.517m-.488 0c0-.734.243-1.351.743-1.85.5-.5 1.115-.744 1.85-.744.734 0 1.34.244 1.84.744.499.499.753 1.116.753 1.85s-.254 1.351-.753 1.85c-.5.5-1.106.744-1.84.744-.735 0-1.35-.244-1.85-.744-.5-.499-.743-1.116-.743-1.85M158.328 37.7v-4.473h-.763v-.46h.763v-.46c0-.588.146-1.009.44-1.262.216-.186.529-.285.93-.285.167 0 .294.01.381.04v.44c-.116-.019-.262-.03-.43-.03-.577 0-.832.324-.832 1.038v.52h1.097v.46h-1.097V37.7h-.489zM166.41 34.911c-.01-.5-.186-.93-.529-1.282-.342-.353-.754-.529-1.253-.529-.519 0-.96.176-1.331.53-.362.341-.557.772-.578 1.281h3.69zm-4.19.333c0-.764.226-1.39.686-1.87.46-.49 1.037-.735 1.722-.735.656 0 1.204.236 1.635.716.44.479.656 1.057.656 1.752 0 .098 0 .175-.01.244H162.7c.01.597.196 1.077.558 1.448.362.373.832.558 1.39.558.616 0 1.155-.233 1.615-.714l.323.314c-.5.577-1.145.86-1.938.86-.715 0-1.292-.233-1.752-.704-.45-.48-.676-1.086-.676-1.84v-.029zM169.812 36.458c.195.538.675.89 1.419.89.793 0 1.165-.401 1.165-.9 0-.284-.098-.5-.284-.646-.186-.147-.509-.324-.98-.52-.89-.38-1.31-.695-1.31-1.428 0-.705.576-1.215 1.36-1.215.617 0 1.056.256 1.321.774l-.4.206c-.197-.343-.5-.519-.911-.519-.509 0-.881.294-.881.754 0 .5.333.724 1.126 1.047 1.017.42 1.448.793 1.448 1.546 0 .754-.597 1.362-1.654 1.362-.91 0-1.596-.442-1.831-1.195l.412-.156zM175.72 36.458c.197.538.677.89 1.42.89.793 0 1.166-.401 1.166-.9 0-.284-.098-.5-.285-.646-.186-.147-.509-.324-.979-.52-.89-.38-1.31-.695-1.31-1.428 0-.705.576-1.215 1.358-1.215.618 0 1.058.256 1.322.774l-.4.206c-.197-.343-.5-.519-.911-.519-.509 0-.88.294-.88.754 0 .5.332.724 1.125 1.047 1.018.42 1.449.793 1.449 1.546 0 .754-.598 1.362-1.655 1.362-.91 0-1.596-.442-1.831-1.195l.412-.156zM181.61 32.768h.489v4.042c0 .381.098.538.402.538.087 0 .185-.01.273-.02v.412c-.107.04-.235.059-.402.059-.508 0-.762-.305-.762-.902v-4.13zm-.01-1.078c-.128-.127-.128-.362 0-.49.312-.351.84.196.499.49-.127.127-.353.127-.5 0h0zM185.62 35.234c0 .606.196 1.116.598 1.526.401.402.91.608 1.507.608.597 0 1.096-.206 1.498-.608.4-.41.606-.92.606-1.526 0-.608-.206-1.116-.606-1.517-.402-.412-.901-.617-1.498-.617-.598 0-1.106.205-1.507.617-.402.401-.598.91-.598 1.517m-.488 0c0-.734.243-1.351.743-1.85.5-.5 1.115-.744 1.85-.744.734 0 1.34.244 1.84.744.499.499.753 1.116.753 1.85s-.254 1.351-.753 1.85c-.5.5-1.106.744-1.84.744-.735 0-1.35-.244-1.85-.744-.5-.499-.743-1.116-.743-1.85M193.24 37.7v-4.933h.49v.95c.283-.685.842-1.028 1.693-1.028 1.126 0 1.87.763 1.87 1.967v2.075c0 .401.098.558.381.558.03 0 .098-.01.206-.02v.412c-.088.03-.176.048-.284.048-.528 0-.792-.322-.792-.959v-2.016c0-.979-.588-1.605-1.488-1.605-.97 0-1.587.763-1.587 1.898V37.7h-.489zM201.428 33.717c-.381.401-.567.91-.567 1.517 0 .606.186 1.116.567 1.526.383.402.853.608 1.43.608.576 0 1.047-.196 1.43-.597.38-.403.576-.92.576-1.537 0-.617-.196-1.126-.576-1.528-.383-.401-.854-.606-1.43-.606-.568 0-1.047.205-1.43.617m2.683-.735c.362.225.597.49.705.813v-1.027h.489v4.012c0 .42.108.597.41.597.108 0 .206-.01.275-.029v.382c-.098.05-.235.068-.411.068-.5 0-.744-.312-.744-.949v-.166c-.323.694-1.037 1.145-1.977 1.145-.695 0-1.293-.244-1.772-.744-.48-.499-.715-1.116-.715-1.85s.235-1.351.715-1.85c.48-.5 1.077-.744 1.772-.744.48 0 .89.117 1.253.342M208.726 30.878h.49v5.55c0 .656.225.94.733.94.166 0 .304-.01.412-.04v.451c-.148.03-.283.049-.412.049-.812 0-1.223-.46-1.223-1.37v-5.58zM213.1 36.458c.195.538.675.89 1.419.89.793 0 1.165-.401 1.165-.9 0-.284-.098-.5-.285-.646-.185-.147-.508-.324-.978-.52-.89-.38-1.311-.695-1.311-1.428 0-.705.576-1.215 1.359-1.215.618 0 1.057.256 1.322.774l-.4.206c-.197-.343-.5-.519-.912-.519-.508 0-.88.294-.88.754 0 .5.333.724 1.126 1.047 1.017.42 1.448.793 1.448 1.546 0 .754-.597 1.362-1.654 1.362-.91 0-1.596-.442-1.831-1.195l.411-.156z" transform="translate(-162 -10731) translate(162 10731)"/>
			</g>
		</g>
	</g>
</svg>
